<svg width="81" height="81" viewBox="0 0 81 81" fill="none" xmlns="http://www.w3.org/2000/svg">
<g clip-path="url(#clip0_151_4304)">
<path d="M34.8369 34.8884C35.0981 34.8794 35.3629 34.8667 35.631 34.8541V34.883C35.631 35.3 35.4534 35.6377 35.2348 35.6377C35.0162 35.6377 34.8386 35.3037 34.8369 34.8884Z" fill="#F3F1EE"/>
<path d="M34.8369 34.8884C35.0981 34.8794 35.3629 34.8667 35.631 34.8541V34.883C35.631 35.3 35.4534 35.6377 35.2348 35.6377C35.0162 35.6377 34.8386 35.3037 34.8369 34.8884Z" stroke="#4F4024" stroke-width="0.375034" stroke-miterlimit="10"/>
<path d="M34.4691 39.2153C34.0474 38.1826 33.6034 36.3211 35.9188 36.3609C37.7545 36.3934 38.1609 37.6734 38.1728 38.7585C37.2388 38.7928 36.081 38.7838 34.6485 39.1647C34.587 39.181 34.5272 39.1972 34.4691 39.2153Z" fill="#F3F1EE"/>
<path d="M34.4691 39.2153C34.0474 38.1826 33.6034 36.3211 35.9188 36.3609C37.7545 36.3934 38.1609 37.6734 38.1728 38.7585C37.2388 38.7928 36.081 38.7838 34.6485 39.1647C34.587 39.181 34.5272 39.1972 34.4691 39.2153Z" stroke="#4F4024" stroke-width="0.375034" stroke-miterlimit="10"/>
<path d="M80.2838 65.4594C77.731 75.8752 64.2752 73.6328 64.2752 73.6328C55.8843 85.399 38.1767 78.9842 36.1549 75.5935C25.6823 85.2365 10.9665 72.7643 10.8349 70.1915C8.08921 69.1624 2.14849 67.2342 1.05402 57.9758C-0.0406112 48.7174 11.0877 45.1805 13.6423 44.6027C16.2241 41.1236 19.3951 40.8167 20.3821 40.8131C20.5954 41.6382 21.1163 42.3116 21.8335 42.3007C23.524 42.2719 23.3361 43.0735 25.1633 43.2631C27.185 43.4725 27.6034 41.7952 27.1201 40.5513C28.1241 40.5134 28.5869 40.1433 29.1879 40.1433C29.1879 40.1433 31.0954 39.9609 32.3214 40.8347C31.7204 42.187 32.7671 43.7253 34.3841 43.5573C36.8226 43.3028 38.3525 44.3897 43.4326 41.0514C49.7284 36.9133 54.829 41.5587 57.1291 41.6309C58.1229 41.6616 58.5071 40.7535 58.4781 39.7533C70.2365 36.7039 70.9843 50.1311 70.9843 50.1311C70.9843 50.1311 82.8383 55.0437 80.2838 65.4594Z" fill="#F3F1EE"/>
<path d="M80.2838 65.4594C77.731 75.8752 64.2752 73.6328 64.2752 73.6328C55.8843 85.399 38.1767 78.9842 36.1549 75.5935C25.6823 85.2365 10.9665 72.7643 10.8349 70.1915C8.08921 69.1624 2.14849 67.2342 1.05402 57.9758C-0.0406112 48.7174 11.0877 45.1805 13.6423 44.6027C16.2241 41.1236 19.3951 40.8167 20.3821 40.8131C20.5954 41.6382 21.1163 42.3116 21.8335 42.3007C23.524 42.2719 23.3361 43.0735 25.1633 43.2631C27.185 43.4725 27.6034 41.7952 27.1201 40.5513C28.1241 40.5134 28.5869 40.1433 29.1879 40.1433C29.1879 40.1433 31.0954 39.9609 32.3214 40.8347C31.7204 42.187 32.7671 43.7253 34.3841 43.5573C36.8226 43.3028 38.3525 44.3897 43.4326 41.0514C49.7284 36.9133 54.829 41.5587 57.1291 41.6309C58.1229 41.6616 58.5071 40.7535 58.4781 39.7533C70.2365 36.7039 70.9843 50.1311 70.9843 50.1311C70.9843 50.1311 82.8383 55.0437 80.2838 65.4594Z" stroke="#4F4024" stroke-width="0.375034" stroke-miterlimit="10"/>
<path d="M35.6319 34.8832C35.6319 35.3003 35.4543 35.6379 35.2357 35.6379C35.0171 35.6379 34.8395 35.3039 34.8378 34.8886V34.8832C34.8378 34.4643 35.0154 34.1267 35.2357 34.1267C35.4492 34.1267 35.6234 34.4481 35.6319 34.8543V34.8832ZM24.1826 35.1324C23.964 35.1324 23.7864 34.7947 23.7864 34.3759C23.7864 33.9588 23.964 33.6194 24.1826 33.6194C24.4028 33.6194 24.5804 33.9588 24.5804 34.3759C24.5804 34.7947 24.4028 35.1324 24.1826 35.1324ZM40.0682 25.6266C39.7249 23.702 38.2155 22.0698 38.2155 22.0698C43.7753 13.577 38.2155 8.0974 38.2155 8.0974C37.4812 8.45301 36.8767 8.9333 36.3815 9.502C33.079 13.2881 34.6107 20.9433 34.6107 20.9433C32.0374 19.674 26.7167 20.4359 26.7167 20.4359C28.2603 8.42231 20.8818 8.71301 20.8818 8.71301C20.6018 9.3341 20.373 9.9299 20.1868 10.5059V10.5077C17.5333 18.6937 23.7864 22.1782 23.7864 22.1782C23.7864 22.1782 21.7049 23.0123 21.5682 25.5164C21.43 28.0206 21.155 30.4526 20.0229 32.6661C19.6916 33.3142 19.6302 34.1123 19.7941 34.9464C19.8641 35.3003 19.9734 35.6614 20.1202 36.0188C20.2432 36.3186 20.3918 36.6147 20.5642 36.9053C21.1414 36.4467 22.8387 35.3111 24.671 36.1163C24.8126 36.1777 24.939 36.2463 25.0517 36.3204C26.2572 37.1148 25.844 38.5339 25.5145 39.2741H25.5264C26.2658 39.2651 26.8412 39.8356 27.1196 40.5506C28.1236 40.5127 28.5864 40.1425 29.1874 40.1425C29.1874 40.1425 31.0949 39.9602 32.3209 40.834C32.367 40.7275 32.425 40.6228 32.4933 40.5199C32.8451 39.9873 33.4803 39.5106 34.4707 39.2145C34.0489 38.1818 33.605 36.3204 35.9204 36.3601C37.7561 36.3926 38.1625 37.6727 38.1744 38.7577C39.4262 38.7126 40.2799 38.5916 40.857 37.3477C40.869 37.3242 40.8793 37.3007 40.8896 37.2773C41.026 36.9703 41.1473 36.5984 41.2532 36.147C41.26 36.0784 41.2651 36.0098 41.2685 35.9412C41.2993 35.5693 41.3147 35.1865 41.3181 34.7965C41.3181 34.7352 41.3198 34.6756 41.3198 34.6142C41.3232 30.4436 40.0682 25.6266 40.0682 25.6266Z" fill="#F3F1EE"/>
<path d="M35.6319 34.8832C35.6319 35.3003 35.4543 35.6379 35.2357 35.6379C35.0171 35.6379 34.8395 35.3039 34.8378 34.8886V34.8832C34.8378 34.4643 35.0154 34.1267 35.2357 34.1267C35.4492 34.1267 35.6234 34.4481 35.6319 34.8543V34.8832ZM24.1826 35.1324C23.964 35.1324 23.7864 34.7947 23.7864 34.3759C23.7864 33.9588 23.964 33.6194 24.1826 33.6194C24.4028 33.6194 24.5804 33.9588 24.5804 34.3759C24.5804 34.7947 24.4028 35.1324 24.1826 35.1324ZM40.0682 25.6266C39.7249 23.702 38.2155 22.0698 38.2155 22.0698C43.7753 13.577 38.2155 8.0974 38.2155 8.0974C37.4812 8.45301 36.8767 8.9333 36.3815 9.502C33.079 13.2881 34.6107 20.9433 34.6107 20.9433C32.0374 19.674 26.7167 20.4359 26.7167 20.4359C28.2603 8.42231 20.8818 8.71301 20.8818 8.71301C20.6018 9.3341 20.373 9.9299 20.1868 10.5059V10.5077C17.5333 18.6937 23.7864 22.1782 23.7864 22.1782C23.7864 22.1782 21.7049 23.0123 21.5682 25.5164C21.43 28.0206 21.155 30.4526 20.0229 32.6661C19.6916 33.3142 19.6302 34.1123 19.7941 34.9464C19.8641 35.3003 19.9734 35.6614 20.1202 36.0188C20.2432 36.3186 20.3918 36.6147 20.5642 36.9053C21.1414 36.4467 22.8387 35.3111 24.671 36.1163C24.8126 36.1777 24.939 36.2463 25.0517 36.3204C26.2572 37.1148 25.844 38.5339 25.5145 39.2741H25.5264C26.2658 39.2651 26.8412 39.8356 27.1196 40.5506C28.1236 40.5127 28.5864 40.1425 29.1874 40.1425C29.1874 40.1425 31.0949 39.9602 32.3209 40.834C32.367 40.7275 32.425 40.6228 32.4933 40.5199C32.8451 39.9873 33.4803 39.5106 34.4707 39.2145C34.0489 38.1818 33.605 36.3204 35.9204 36.3601C37.7561 36.3926 38.1625 37.6727 38.1744 38.7577C39.4262 38.7126 40.2799 38.5916 40.857 37.3477C40.869 37.3242 40.8793 37.3007 40.8896 37.2773C41.026 36.9703 41.1473 36.5984 41.2532 36.147C41.26 36.0784 41.2651 36.0098 41.2685 35.9412C41.2993 35.5693 41.3147 35.1865 41.3181 34.7965C41.3181 34.7352 41.3198 34.6756 41.3198 34.6142C41.3232 30.4436 40.0682 25.6266 40.0682 25.6266Z" stroke="#4F4024" stroke-width="0.375034" stroke-miterlimit="10"/>
<path d="M38.1729 38.7585C37.2388 38.7928 36.0811 38.7838 34.6484 39.1647C34.5869 39.181 34.5272 39.1972 34.4692 39.2153C34.0474 38.1826 33.6034 36.3211 35.9189 36.3609C37.7545 36.3934 38.1609 37.6734 38.1729 38.7585Z" fill="#E8CEC1"/>
<path d="M38.1729 38.7585C37.2388 38.7928 36.0811 38.7838 34.6484 39.1647C34.5869 39.181 34.5272 39.1972 34.4692 39.2153C34.0474 38.1826 33.6034 36.3211 35.9189 36.3609C37.7545 36.3934 38.1609 37.6734 38.1729 38.7585Z" stroke="#4F4024" stroke-width="0.375034" stroke-miterlimit="10"/>
<path d="M57.1278 41.6306C54.8276 41.5584 49.7271 36.9129 43.4313 41.051C38.3513 44.3893 36.8213 43.3024 34.3829 43.557C32.7658 43.7249 31.719 42.1867 32.3201 40.8344C32.3662 40.7279 32.4243 40.6231 32.4926 40.5202C32.8443 39.9876 33.4796 39.511 34.4699 39.2149C34.528 39.1968 34.5878 39.1806 34.6492 39.1643C36.0819 38.7834 37.2396 38.7924 38.1737 38.7581C39.4253 38.713 40.2791 38.592 40.8563 37.348C40.8682 37.3245 40.8785 37.3011 40.8887 37.2776C41.0253 36.9707 41.1465 36.5987 41.2525 36.1474C41.2593 36.0788 41.2644 36.0102 41.2678 35.9416C41.2985 35.5696 41.3139 35.1869 41.3173 34.7969C41.3173 34.7355 41.319 34.6759 41.319 34.6145C41.3225 30.4439 40.0674 25.6269 40.0674 25.6269C40.0674 25.6269 43.3971 23.0126 46.8635 23.4477C46.9028 23.4531 46.9404 23.4585 46.9796 23.464C49.109 23.7691 51.3544 25.1467 53.004 27.2518C53.7587 28.2141 54.3888 29.3281 54.8276 30.5631C54.9762 30.9855 55.1026 31.4207 55.205 31.8684C56.2688 36.55 54.8276 37.8211 56.6462 37.2758C57.681 36.9671 58.4375 38.4385 58.4768 39.7529C58.5058 40.7531 58.1216 41.6613 57.1278 41.6306Z" fill="#F3F1EE"/>
<path d="M57.1278 41.6306C54.8276 41.5584 49.7271 36.9129 43.4313 41.051C38.3513 44.3893 36.8213 43.3024 34.3829 43.557C32.7658 43.7249 31.719 42.1867 32.3201 40.8344C32.3662 40.7279 32.4243 40.6231 32.4926 40.5202C32.8443 39.9876 33.4796 39.511 34.4699 39.2149C34.528 39.1968 34.5878 39.1806 34.6492 39.1643C36.0819 38.7834 37.2396 38.7924 38.1737 38.7581C39.4253 38.713 40.2791 38.592 40.8563 37.348C40.8682 37.3245 40.8785 37.3011 40.8887 37.2776C41.0253 36.9707 41.1465 36.5987 41.2525 36.1474C41.2593 36.0788 41.2644 36.0102 41.2678 35.9416C41.2985 35.5696 41.3139 35.1869 41.3173 34.7969C41.3173 34.7355 41.319 34.6759 41.319 34.6145C41.3225 30.4439 40.0674 25.6269 40.0674 25.6269C40.0674 25.6269 43.3971 23.0126 46.8635 23.4477C46.9028 23.4531 46.9404 23.4585 46.9796 23.464C49.109 23.7691 51.3544 25.1467 53.004 27.2518C53.7587 28.2141 54.3888 29.3281 54.8276 30.5631C54.9762 30.9855 55.1026 31.4207 55.205 31.8684C56.2688 36.55 54.8276 37.8211 56.6462 37.2758C57.681 36.9671 58.4375 38.4385 58.4768 39.7529C58.5058 40.7531 58.1216 41.6613 57.1278 41.6306Z" stroke="#4F4024" stroke-width="0.375034" stroke-miterlimit="10" stroke-linecap="round"/>
<path d="M56.2871 28.7325C55.6331 29.3301 55.2078 29.5395 55.1515 30.018C55.131 30.2021 54.991 30.3953 54.8271 30.5632C54.3882 29.3283 53.7582 28.2143 53.0034 27.252C53.9289 27.8605 55.3479 28.4129 56.5722 27.2917C56.7976 27.8135 56.8489 28.2179 56.2871 28.7325Z" fill="#E2DAD0"/>
<path d="M56.2871 28.7325C55.6331 29.3301 55.2078 29.5395 55.1515 30.018C55.131 30.2021 54.991 30.3953 54.8271 30.5632C54.3882 29.3283 53.7582 28.2143 53.0034 27.252C53.9289 27.8605 55.3479 28.4129 56.5722 27.2917C56.7976 27.8135 56.8489 28.2179 56.2871 28.7325Z" stroke="#4F4024" stroke-width="0.375034" stroke-miterlimit="10"/>
<path d="M56.7635 25.5331C56.7635 25.9213 56.1419 26.3708 56.4527 27.028C56.497 27.1201 56.5364 27.2068 56.5722 27.2916C55.3479 28.4128 53.9289 27.8604 53.0034 27.2519C51.3538 25.1467 49.1084 23.7692 46.979 23.464C47.1464 22.4403 47.7765 19.7971 49.8085 20.0643C52.3254 20.3929 51.4495 20.6312 53.0324 20.81C54.6153 20.9905 54.4446 22.3952 55.5767 22.4855C56.7071 22.5739 55.6604 23.9497 56.2546 24.2783C56.8489 24.6069 56.7635 25.1449 56.7635 25.5331Z" fill="#F3F1EE"/>
<path d="M56.7635 25.5331C56.7635 25.9213 56.1419 26.3708 56.4527 27.028C56.497 27.1201 56.5364 27.2068 56.5722 27.2916C55.3479 28.4128 53.9289 27.8604 53.0034 27.2519C51.3538 25.1467 49.1084 23.7692 46.979 23.464C47.1464 22.4403 47.7765 19.7971 49.8085 20.0643C52.3254 20.3929 51.4495 20.6312 53.0324 20.81C54.6153 20.9905 54.4446 22.3952 55.5767 22.4855C56.7071 22.5739 55.6604 23.9497 56.2546 24.2783C56.8489 24.6069 56.7635 25.1449 56.7635 25.5331Z" stroke="#4F4024" stroke-width="0.375034" stroke-miterlimit="10"/>
<path d="M25.3309 17.1417C25.2899 17.575 25.213 17.9379 25.0832 18.1672C24.4481 19.2884 24.0928 20.666 24.0928 20.666C24.0928 20.666 22.095 19.0681 20.98 17.2338" fill="#E8CEC1"/>
<path d="M25.3309 17.1417C25.2899 17.575 25.213 17.9379 25.0832 18.1672C24.4481 19.2884 24.0928 20.666 24.0928 20.666C24.0928 20.666 22.095 19.0681 20.98 17.2338" stroke="#4F4024" stroke-width="0.375034" stroke-miterlimit="10"/>
<path d="M24.4717 12.7703C24.4717 12.7703 25.5661 14.7193 25.3322 17.1409" stroke="#4F4024" stroke-width="0.375034" stroke-miterlimit="10" stroke-linecap="round"/>
<path d="M20.8809 8.71343C19.9977 12.4156 19.8966 13.9524 20.2662 15.3954C20.4169 15.984 20.6111 16.6304 20.98 17.2334" stroke="#4F4024" stroke-width="0.375034" stroke-miterlimit="10"/>
<path d="M39.5936 17.1162C38.9328 18.9018 37.5906 20.2505 37.0168 20.7705C36.9964 20.6441 36.9537 20.5303 36.8802 20.4383C36.6498 20.1476 35.2324 19.4958 35.2085 16.199" fill="#E8CEC1"/>
<path d="M39.5936 17.1162C38.9328 18.9018 37.5906 20.2505 37.0168 20.7705C36.9964 20.6441 36.9537 20.5303 36.8802 20.4383C36.6498 20.1476 35.2324 19.4958 35.2085 16.199" stroke="#4F4024" stroke-width="0.375034" stroke-miterlimit="10"/>
<path d="M37.016 20.7697C37.1014 21.2554 36.8794 21.8945 36.8794 21.8945" stroke="#4F4024" stroke-width="0.375034" stroke-miterlimit="10" stroke-linecap="round"/>
<path d="M35.2072 16.1985C35.1936 14.6404 35.8393 10.2196 38.2143 8.09741" stroke="#4F4024" stroke-width="0.375034" stroke-miterlimit="10"/>
<path d="M39.7772 16.5312C39.7242 16.728 39.6628 16.9212 39.5928 17.1108" stroke="#4F4024" stroke-width="0.375034" stroke-miterlimit="10" stroke-linecap="round"/>
<path d="M28.7925 36.2498C28.7925 36.2498 29.5624 37.5677 30.8943 36.5211" stroke="#4F4024" stroke-width="0.375034" stroke-miterlimit="10"/>
<path d="M15.0869 36.1162C16.8696 34.8451 18.8914 34.8596 19.793 34.9463" stroke="#4F4024" stroke-width="0.375034" stroke-miterlimit="10" stroke-linecap="round"/>
<path d="M15.248 38.2219C16.9215 36.6927 19.102 36.1817 20.1198 36.0192" stroke="#4F4024" stroke-width="0.375034" stroke-miterlimit="10" stroke-linecap="round"/>
<path d="M15.4624 40.8235C16.6799 38.7761 19.4462 37.5917 20.7098 37.1385" stroke="#4F4024" stroke-width="0.375034" stroke-miterlimit="10" stroke-linecap="round"/>
<path d="M25.1614 43.2624C23.3343 43.0728 23.5221 42.2712 21.8316 42.3001C21.1144 42.3109 20.5937 41.6375 20.3802 40.8124C20.0985 39.7309 20.341 38.3913 21.3518 37.9959C21.3894 37.9796 21.4269 37.967 21.4662 37.9543C21.4662 37.9543 21.7924 38.171 22.3131 38.4273C23.0901 38.8119 24.3008 39.2868 25.5132 39.2741H25.5251C26.2645 39.2651 26.84 39.8356 27.1183 40.5506C27.6015 41.7946 27.1831 43.4718 25.1614 43.2624Z" fill="#F3F1EE"/>
<path d="M25.1614 43.2624C23.3343 43.0728 23.5221 42.2712 21.8316 42.3001C21.1144 42.3109 20.5937 41.6375 20.3802 40.8124C20.0985 39.7309 20.341 38.3913 21.3518 37.9959C21.3894 37.9796 21.4269 37.967 21.4662 37.9543C21.4662 37.9543 21.7924 38.171 22.3131 38.4273C23.0901 38.8119 24.3008 39.2868 25.5132 39.2741H25.5251C26.2645 39.2651 26.84 39.8356 27.1183 40.5506C27.6015 41.7946 27.1831 43.4718 25.1614 43.2624Z" stroke="#4F4024" stroke-width="0.375034" stroke-miterlimit="10" stroke-linecap="round"/>
<path d="M24.5792 34.3766C24.5792 34.7955 24.4016 35.1331 24.1813 35.1331C23.9628 35.1331 23.7852 34.7955 23.7852 34.3766C23.7852 33.9595 23.9628 33.6201 24.1813 33.6201C24.4016 33.6201 24.5792 33.9595 24.5792 34.3766Z" fill="#423D34"/>
<path d="M35.6324 34.883C35.6324 35.3001 35.4548 35.6377 35.2363 35.6377C35.016 35.6377 34.8384 35.3001 34.8384 34.883C34.8384 34.4641 35.016 34.1265 35.2363 34.1265C35.4548 34.1265 35.6324 34.4641 35.6324 34.883Z" fill="#423D34"/>
<path d="M40.3062 34.8824C40.3062 34.8824 42.8731 34.4499 45.9306 35.4353" stroke="#4F4024" stroke-width="0.375034" stroke-miterlimit="10" stroke-linecap="round"/>
<path d="M39.6196 35.8672C39.6196 35.8672 43.282 35.7462 46.0942 37.3193" stroke="#4F4024" stroke-width="0.375034" stroke-miterlimit="10" stroke-linecap="round"/>
<path d="M39.792 36.9251C41.1388 37.4192 42.8538 38.1934 43.8205 39.188" stroke="#4F4024" stroke-width="0.375034" stroke-miterlimit="10" stroke-linecap="round"/>
<path d="M18.3557 53.8684C18.1611 51.3305 14.766 48.1348 12.7819 49.9428C13.1448 51.0832 13.5905 52.1944 13.7636 53.3934C14.1018 54.666 14.1931 55.8673 14.268 57.1728C14.7194 60.4155 19.1366 56.7584 18.3557 53.8684ZM19.6896 53.2874C19.8373 60.4252 13.5903 57.4257 14.5738 61.0498C15.1236 62.2412 14.3257 65.3068 15.6082 65.3226C16.1386 65.3834 15.9029 65.9369 15.0937 66.1757C14.1903 66.4425 11.3535 66.7431 13.5637 65.5074C13.3787 62.7698 12.9477 60.4395 12.9475 57.8753C12.6953 55.2642 12.5265 52.3016 11.2834 50.0762C10.8005 49.0696 9.17929 50.818 9.08789 49.1617C12.9235 47.9732 18.7372 48.0856 19.6896 53.2874Z" fill="#4F4024"/>
<path d="M26.5877 60.3972C25.3736 60.0061 23.5226 60.2568 22.6251 61.0024C22.2776 62.111 22.8407 63.8258 24.2038 62.8835C25.407 62.5794 25.7992 61.3942 26.653 60.9989C26.9301 60.9481 26.6302 60.5423 26.5877 60.3972ZM30.9719 64.5202C31.0058 65.1226 30.431 65.3195 29.8907 65.3902C25.4418 67.1921 28.3822 61.314 26.5619 62.299C25.2054 63.2685 22.3021 65.5422 21.6565 62.5863C20.974 56.7556 29.1696 62.0339 25.763 54.9673C24.8194 52.4621 21.0877 54.5676 22.6016 56.7253C22.3464 58.5067 21.1491 55.8958 21.6457 55.2166C22.3172 52.0649 25.6439 52.1501 27.267 54.877C28.4112 57.858 28.3977 61.1331 28.8657 64.2102C29.1017 65.1157 30.6055 63.576 30.9719 64.5202Z" fill="#4F4024"/>
<path d="M46.5627 61.004C47.186 61.5552 42.2778 63.1859 42.1296 62.846C42.0591 62.3017 42.6059 62.009 43.0171 61.9084C44.2412 60.6861 42.8707 57.364 42.9966 55.4076C42.573 51.0561 41.0092 51.9152 39.6936 55.235C38.985 56.6195 39.2084 58.3606 38.8051 59.898C36.6429 60.4245 37.994 55.2723 36.6949 53.9999C36.3728 54.0873 36.168 54.1043 35.8804 54.0001C35.855 54.632 35.0925 54.3118 35.1456 54.9515C33.758 55.7566 34.0477 57.3424 33.3562 58.6164C33.6665 59.8262 33.7873 62.3888 33.9834 63.7346C34.7349 63.3987 36.5925 63.6582 34.9997 64.3008C33.9655 64.4083 33.1279 65.146 32.1197 65.4385C31.655 64.7132 32.0056 64.5345 32.6568 64.1671C32.9998 63.2163 32.4682 61.7431 32.3921 60.6663C32.2003 59.0631 31.8514 57.2967 31.5033 55.7149C31.2837 54.3733 31.3956 53.6837 29.9857 54.3984C28.6727 53.7495 32.6141 52.6102 33.0826 52.9004C33.4495 53.1383 32.8171 53.7642 32.5987 53.5874C32.1369 53.8086 32.9049 55.555 32.8995 56.2466C33.3155 57.5873 34.0093 54.5909 34.712 54.389C38.5039 50.2449 38.0268 57.9283 39.2652 54.7208C40.9484 50.2364 43.4496 50.281 44.2486 55.2612C44.9336 57.0693 44.1325 59.5635 45.014 61.1114C45.6118 61.1496 46.0742 60.5279 46.5627 61.004Z" fill="#4F4024"/>
<path d="M53.9095 52.9867C53.6919 51.818 53.3544 50.5428 52.8212 49.6232C50.3593 49.0175 49.1724 51.3571 48.9124 53.4969C48.9141 58.0916 54.7122 57.4835 53.9095 52.9867ZM55.4334 52.0133C55.8924 55.4377 53.1911 57.9735 50.2068 57.4749C48.6006 56.0217 49.7226 58.7091 49.9571 59.6723C50.4026 61.5669 50.8038 63.5864 51.2183 65.4767C51.5559 66.4049 51.2568 69.746 52.6354 68.4435C53.4598 70.0235 50.1607 70.2459 49.1789 70.5903C48.3927 70.0161 50.0912 69.7161 50.3386 69.375C50.292 67.908 49.8438 66.3766 49.5188 64.8407C48.6545 60.9204 47.699 56.984 47.161 53.0259C46.915 51.6686 47.0106 49.5418 46.5014 48.5707C46.198 48.8876 45.459 49.0947 45.3818 48.5558C51.0211 45.126 46.9053 47.9518 48.1952 51.0848C48.498 51.5256 48.5551 50.8125 48.7561 50.7829C50.3573 47.3364 55.0519 47.8454 55.4334 52.0133Z" fill="#4F4024"/>
<path d="M58.2375 45.0487C58.1807 46.0666 56.9256 46.4355 56.4997 45.5557C55.9211 44.2639 58.0131 43.3094 58.2375 45.0487ZM61.3811 58.9457C61.063 59.6337 59.3224 59.673 58.5182 59.8119C56.7181 60.8795 56.2374 59.2741 58.2401 58.8603C58.6279 57.8531 58.0787 55.8729 58.1766 54.5351C57.8248 53.5227 58.4905 51.7609 57.7318 51.0929C55.1534 51.4368 57.7211 49.7462 58.8622 50.1433C60.2752 52.5051 58.8336 56.545 60.2326 58.6671C60.7848 58.2442 61.0499 58.1768 61.3811 58.9457Z" fill="#4F4024"/>
<path d="M57.9911 64.1824L57.337 64.3624C57.2426 64.3884 57.1698 64.386 57.1185 64.3551C57.068 64.3229 57.0313 64.2603 57.0083 64.1672L56.6095 62.5468C56.5861 62.4517 56.5897 62.3779 56.6205 62.3255C56.652 62.2719 56.7139 62.2323 56.8064 62.2069L57.4999 62.016C57.6021 61.9879 57.6922 61.9699 57.7703 61.962C57.8484 61.9541 57.9216 61.9601 57.9899 61.9801C58.048 61.9965 58.1023 62.0229 58.1528 62.0593C58.2031 62.0946 58.2455 62.1379 58.2799 62.1892C58.3141 62.2394 58.3389 62.2959 58.3543 62.3586C58.4074 62.5743 58.3392 62.7616 58.1497 62.9205C58.4532 62.9333 58.637 63.07 58.7012 63.3308C58.7309 63.4513 58.727 63.5686 58.6896 63.6825C58.6519 63.7955 58.5867 63.8893 58.4939 63.964C58.4354 64.0094 58.3653 64.0496 58.2835 64.0847C58.2015 64.1188 58.104 64.1514 57.9911 64.1824ZM57.7234 63.2341L57.2722 63.3582L57.4271 63.9875L57.8929 63.8594C58.1858 63.7787 58.3061 63.6321 58.2538 63.4194C58.227 63.3106 58.1696 63.2421 58.0816 63.214C57.9936 63.1858 57.8742 63.1925 57.7234 63.2341ZM57.0579 62.4877L57.1951 63.045L57.5922 62.9357C57.7003 62.906 57.781 62.8728 57.8343 62.8362C57.8886 62.7992 57.9242 62.7476 57.9411 62.6812C57.9553 62.6333 57.9561 62.5839 57.9436 62.5329C57.9168 62.4241 57.8606 62.3626 57.7751 62.3485C57.6892 62.3334 57.5675 62.3475 57.4098 62.3909L57.0579 62.4877ZM60.5017 62.6594C60.5312 62.779 60.5398 62.8944 60.5277 63.0056C60.5156 63.1167 60.4834 63.2182 60.4312 63.31C60.3789 63.4018 60.309 63.4807 60.2213 63.5467C60.1334 63.6118 60.0286 63.661 59.9069 63.6945C59.7862 63.7277 59.6729 63.738 59.5669 63.7253C59.4608 63.7126 59.3634 63.6797 59.2745 63.6267C59.1863 63.5725 59.1115 63.501 59.0502 63.4122C58.9895 63.3221 58.9444 63.2168 58.9147 63.0962C58.8848 62.9746 58.8759 62.8583 58.888 62.7471C58.9002 62.636 58.932 62.5351 58.9835 62.4446C59.035 62.354 59.1052 62.276 59.1941 62.2108C59.2827 62.1445 59.3864 62.095 59.5052 62.0624C59.6259 62.0291 59.7402 62.0186 59.8481 62.0308C59.9561 62.0429 60.054 62.0756 60.142 62.1289C60.2299 62.1821 60.3042 62.2538 60.3648 62.3439C60.4264 62.4337 60.4721 62.5389 60.5017 62.6594ZM60.1017 62.7695C60.0614 62.6058 59.994 62.4883 59.8996 62.417C59.8061 62.3454 59.699 62.3262 59.5783 62.3594C59.5004 62.3808 59.4369 62.4203 59.3876 62.4778C59.3381 62.5343 59.3071 62.6067 59.2945 62.6949C59.282 62.7832 59.2887 62.8802 59.3148 62.9861C59.3406 63.091 59.3787 63.1783 59.4292 63.2482C59.4806 63.3178 59.5407 63.3656 59.6095 63.3917C59.679 63.4165 59.7536 63.418 59.8334 63.396C59.9541 63.3628 60.0388 63.2908 60.0874 63.1801C60.1368 63.0681 60.1415 62.9313 60.1017 62.7695ZM61.9974 62.8774L61.9847 62.826C61.952 62.8999 61.9144 62.9646 61.872 63.0203C61.8296 63.0759 61.7796 63.1221 61.7221 63.1588C61.6649 63.1966 61.5964 63.2264 61.5166 63.2484C61.4202 63.2749 61.3287 63.2786 61.2419 63.2596C61.1561 63.2403 61.0835 63.2011 61.0243 63.1421C60.9537 63.0704 60.8987 62.9547 60.8594 62.795L60.6635 61.9995C60.6438 61.9191 60.647 61.8544 60.6734 61.8052C60.6995 61.7551 60.7423 61.7219 60.8016 61.7056C60.862 61.689 60.9156 61.6957 60.9625 61.7257C61.0094 61.7557 61.0426 61.8104 61.0621 61.8898L61.2203 62.5324C61.2432 62.6255 61.2703 62.7018 61.3016 62.7612C61.3326 62.8196 61.3725 62.8615 61.4213 62.8868C61.4709 62.9108 61.5302 62.9133 61.5994 62.8943C61.6665 62.8758 61.7248 62.8383 61.7743 62.7818C61.8238 62.7253 61.8542 62.6609 61.8655 62.5887C61.8739 62.5257 61.8545 62.3981 61.8072 62.206L61.687 61.7178C61.6675 61.6384 61.6712 61.5735 61.6983 61.5232C61.7254 61.4728 61.7687 61.4395 61.828 61.4231C61.8874 61.4068 61.94 61.4138 61.986 61.444C62.0316 61.4733 62.0643 61.5282 62.0841 61.6086L62.3704 62.7716C62.3893 62.8481 62.3858 62.9103 62.3602 62.9581C62.3356 63.0057 62.296 63.037 62.2415 63.052C62.187 63.067 62.1369 63.0599 62.0912 63.0306C62.0463 63 62.015 62.949 61.9974 62.8774ZM62.4543 61.2885L62.4981 61.2764L62.4387 61.0353C62.4228 60.9706 62.4118 60.9197 62.4058 60.8826C62.4006 60.8443 62.4025 60.8097 62.4115 60.779C62.4203 60.7473 62.4373 60.719 62.4624 60.6943C62.4872 60.6687 62.5177 60.6509 62.5537 60.641C62.6043 60.627 62.6548 60.6336 62.705 60.6605C62.7386 60.6785 62.7633 60.7052 62.7793 60.7406C62.796 60.7747 62.8127 60.8256 62.8294 60.8932L62.8967 61.1667L63.0427 61.1265C63.0991 61.111 63.1453 61.1129 63.1813 61.1324C63.218 61.1505 63.2415 61.1807 63.2519 61.2228C63.2652 61.2767 63.253 61.3204 63.2155 61.3537C63.179 61.3868 63.1213 61.4142 63.0424 61.4359L62.968 61.4564L63.1497 62.1945C63.1651 62.2573 63.179 62.3052 63.1914 62.3385C63.2044 62.3705 63.2229 62.3947 63.2467 62.4112C63.2712 62.4264 63.3049 62.4281 63.3477 62.4163C63.3711 62.4099 63.4017 62.3973 63.4397 62.3785C63.4774 62.3587 63.5075 62.3457 63.5299 62.3395C63.562 62.3307 63.594 62.336 63.6258 62.3555C63.6584 62.3738 63.6793 62.402 63.6888 62.4402C63.7047 62.5049 63.6818 62.5641 63.6202 62.6177C63.5586 62.6713 63.462 62.7161 63.3306 62.7523C63.2061 62.7866 63.1065 62.7915 63.0318 62.767C62.9572 62.7426 62.9005 62.6959 62.8617 62.627C62.8239 62.5579 62.7897 62.461 62.7591 62.3366L62.5694 61.5661L62.5168 61.5805C62.4594 61.5963 62.4122 61.5947 62.3753 61.5755C62.3384 61.5564 62.3147 61.5257 62.3043 61.4836C62.294 61.4414 62.3011 61.4028 62.3257 61.3678C62.3511 61.3315 62.394 61.3051 62.4543 61.2885ZM63.9384 61.0857L64.2239 62.2459C64.2437 62.3262 64.2397 62.3922 64.2119 62.4439C64.1841 62.4955 64.1409 62.5293 64.0825 62.5454C64.0241 62.5615 63.9713 62.5535 63.9239 62.5215C63.8775 62.4893 63.8447 62.434 63.8254 62.3555L63.5427 61.2072C63.5231 61.1278 63.5264 61.063 63.5525 61.0129C63.5796 60.9626 63.6224 60.9293 63.6808 60.9133C63.7392 60.8972 63.7923 60.904 63.8402 60.9338C63.888 60.9635 63.9207 61.0142 63.9384 61.0857ZM63.6392 60.7253C63.5837 60.7406 63.5318 60.7366 63.4834 60.7132C63.4361 60.6896 63.4047 60.6465 63.3892 60.5837C63.3752 60.5269 63.3837 60.4748 63.4147 60.4276C63.4464 60.3791 63.489 60.3475 63.5426 60.3327C63.5941 60.3185 63.644 60.3226 63.6921 60.3449C63.7402 60.3673 63.7721 60.4103 63.7878 60.474C63.803 60.5358 63.7955 60.5897 63.7652 60.6357C63.7347 60.6807 63.6927 60.7106 63.6392 60.7253ZM65.87 62.4036L65.7307 61.8375C65.6728 61.9361 65.6071 62.0175 65.5336 62.0817C65.4607 62.1447 65.3737 62.1901 65.2724 62.2179C65.1488 62.252 65.0278 62.2502 64.9095 62.2126C64.7921 62.1748 64.6891 62.1027 64.6005 61.9962C64.5127 61.8885 64.4483 61.7513 64.4073 61.5847C64.3653 61.4141 64.3585 61.26 64.387 61.1224C64.4152 60.9838 64.4731 60.8684 64.5606 60.7763C64.6491 60.684 64.7566 60.6204 64.8831 60.5855C64.9902 60.5561 65.0916 60.5522 65.1874 60.574C65.2829 60.5948 65.3721 60.6425 65.4548 60.7171L65.4429 60.6685C65.4248 60.595 65.4286 60.5343 65.4542 60.4865C65.4798 60.4386 65.5204 60.407 65.5759 60.3917C65.6313 60.3765 65.6813 60.3831 65.7258 60.4117C65.77 60.4393 65.8012 60.4904 65.8196 60.5649L66.2467 62.2999C66.2906 62.4784 66.2498 62.5848 66.1242 62.6194C66.0464 62.6408 65.9893 62.6309 65.9532 62.5895C65.918 62.5479 65.8903 62.4859 65.87 62.4036ZM64.8066 61.4717C64.8331 61.5795 64.8731 61.6679 64.9265 61.737C64.9806 61.8048 65.0405 61.85 65.1064 61.8727C65.172 61.8944 65.2374 61.8963 65.3027 61.8784C65.3737 61.8588 65.4343 61.8222 65.4845 61.7686C65.5345 61.7141 65.568 61.6431 65.5849 61.5558C65.6019 61.4684 65.5963 61.3679 65.5684 61.2542C65.5486 61.1738 65.52 61.1042 65.4827 61.0454C65.4463 60.9863 65.4049 60.9407 65.3585 60.9084C65.3119 60.8752 65.2627 60.8547 65.2109 60.847C65.1589 60.8383 65.1066 60.8412 65.054 60.8556C64.947 60.8851 64.8689 60.9542 64.8198 61.063C64.7707 61.1717 64.7663 61.308 64.8066 61.4717ZM67.5454 61.3507L67.5328 61.2992C67.5 61.3731 67.4624 61.4379 67.42 61.4935C67.3776 61.5491 67.3276 61.5953 67.2702 61.6321C67.2129 61.6698 67.1444 61.6996 67.0646 61.7216C66.9683 61.7481 66.8767 61.7519 66.7899 61.7328C66.7041 61.7135 66.6316 61.6744 66.5723 61.6153C66.5017 61.5437 66.4467 61.428 66.4074 61.2682L66.2116 60.4727C66.1918 60.3923 66.1951 60.3276 66.2214 60.2785C66.2476 60.2284 66.2903 60.1951 66.3497 60.1788C66.41 60.1622 66.4636 60.1689 66.5105 60.1989C66.5574 60.2289 66.5906 60.2836 66.6102 60.363L66.7683 61.0056C66.7912 61.0987 66.8183 61.175 66.8496 61.2344C66.8806 61.2929 66.9205 61.3347 66.9694 61.36C67.0189 61.3841 67.0783 61.3866 67.1474 61.3676C67.2145 61.3491 67.2729 61.3116 67.3223 61.255C67.3718 61.1985 67.4022 61.1342 67.4136 61.062C67.4219 60.9989 67.4025 60.8714 67.3552 60.6792L67.235 60.1911C67.2155 60.1117 67.2193 60.0468 67.2464 59.9964C67.2735 59.946 67.3167 59.9127 67.3761 59.8964C67.4354 59.88 67.4881 59.887 67.534 59.9173C67.5796 59.9466 67.6124 60.0014 67.6322 60.0818L67.9185 61.2449C67.9373 61.3213 67.9339 61.3835 67.9082 61.4314C67.8836 61.479 67.844 61.5103 67.7895 61.5253C67.735 61.5403 67.6849 61.5331 67.6392 61.5038C67.5943 61.4733 67.563 61.4222 67.5454 61.3507ZM69.3094 60.3409L68.5298 60.5554C68.5532 60.6463 68.591 60.7217 68.6431 60.7817C68.6963 60.8414 68.7564 60.8808 68.8235 60.9C68.8915 60.919 68.9611 60.9187 69.0322 60.8991C69.0798 60.886 69.1218 60.8687 69.1581 60.8472C69.1951 60.8245 69.2292 60.7962 69.2604 60.7625C69.2914 60.7278 69.3191 60.6925 69.3434 60.6565C69.3678 60.6205 69.3991 60.5721 69.4371 60.5114C69.4532 60.4881 69.4802 60.4712 69.5182 60.4608C69.5591 60.4496 69.5949 60.4517 69.6258 60.4673C69.6567 60.4829 69.6772 60.5113 69.6873 60.5524C69.6962 60.5887 69.6926 60.6352 69.6764 60.692C69.66 60.7478 69.6287 60.8062 69.5823 60.867C69.5368 60.9267 69.4743 60.9831 69.3949 61.0364C69.3165 61.0894 69.2213 61.1313 69.1093 61.1621C68.8534 61.2325 68.6362 61.2138 68.4579 61.1058C68.2796 60.9979 68.1595 60.818 68.0974 60.566C68.0682 60.4474 68.0587 60.3328 68.0689 60.2222C68.0789 60.1106 68.1085 60.0093 68.1578 59.9183C68.2071 59.8273 68.2762 59.7491 68.3651 59.6838C68.4538 59.6176 68.5579 59.568 68.6777 59.535C68.8334 59.4922 68.9749 59.4888 69.1023 59.5249C69.2304 59.5598 69.3351 59.622 69.4164 59.7117C69.4977 59.8013 69.5518 59.9005 69.5785 60.0093C69.6034 60.1103 69.5908 60.1839 69.5409 60.23C69.4907 60.2753 69.4135 60.3122 69.3094 60.3409ZM68.4737 60.3275L69.1964 60.1286C69.1528 59.9941 69.0906 59.9018 69.0097 59.8518C68.9296 59.8006 68.8374 59.7894 68.7333 59.818C68.634 59.8453 68.5608 59.9026 68.5137 59.9899C68.4673 60.0759 68.454 60.1885 68.4737 60.3275Z" fill="#4F4024"/>
<path d="M56.6299 68.7762L56.9155 69.9364C56.9353 70.0167 56.9313 70.0827 56.9034 70.1343C56.8756 70.186 56.8325 70.2198 56.7741 70.2359C56.7157 70.252 56.6628 70.244 56.6155 70.212C56.5691 70.1798 56.5362 70.1245 56.5169 70.046L56.2342 68.8977C56.2147 68.8183 56.218 68.7535 56.2441 68.7034C56.2712 68.653 56.3139 68.6198 56.3723 68.6038C56.4307 68.5877 56.4839 68.5945 56.5317 68.6243C56.5796 68.654 56.6123 68.7047 56.6299 68.7762ZM56.3308 68.4158C56.2753 68.4311 56.2234 68.427 56.175 68.4037C56.1276 68.3801 56.0962 68.337 56.0808 68.2742C56.0668 68.2174 56.0753 68.1653 56.1062 68.1181C56.138 68.0696 56.1806 68.0379 56.2341 68.0232C56.2857 68.009 56.3355 68.0131 56.3837 68.0354C56.4318 68.0578 56.4637 68.1008 56.4794 68.1645C56.4946 68.2263 56.487 68.2802 56.4568 68.3262C56.4263 68.3712 56.3843 68.4011 56.3308 68.4158ZM57.4037 68.557L57.4157 68.6055C57.4628 68.4931 57.5225 68.4039 57.5946 68.338C57.6674 68.2709 57.7579 68.2225 57.8659 68.1927C57.971 68.1638 58.0706 68.161 58.1647 68.1843C58.2588 68.2076 58.3366 68.2558 58.3983 68.3288C58.4366 68.3706 58.4667 68.4189 58.4885 68.4736C58.5103 68.5283 58.532 68.5997 58.5537 68.688L58.7376 69.4349C58.7574 69.5153 58.7538 69.5812 58.727 69.6325C58.7011 69.6836 58.659 69.7172 58.6006 69.7333C58.5412 69.7496 58.4878 69.7418 58.4405 69.7098C58.3931 69.6778 58.3598 69.6226 58.3405 69.5442L58.1758 68.8752C58.1432 68.7429 58.0999 68.647 58.0457 68.5876C57.9924 68.5269 57.9112 68.5116 57.8021 68.5416C57.7311 68.5611 57.6717 68.6005 57.6239 68.6597C57.5759 68.7179 57.5474 68.788 57.5385 68.87C57.5337 68.9352 57.5515 69.0496 57.5918 69.2133L57.7156 69.7162C57.7356 69.7975 57.7317 69.864 57.7039 69.9156C57.6768 69.966 57.6336 69.9994 57.5742 70.0157C57.5168 70.0315 57.4644 70.0234 57.417 69.9915C57.3696 69.9595 57.3363 69.9043 57.317 69.8259L57.0314 68.6657C57.0126 68.5893 57.0152 68.5279 57.0391 68.4815C57.0628 68.4342 57.1033 68.4026 57.1607 68.3868C57.1958 68.3771 57.2295 68.3768 57.2618 68.3857C57.2941 68.3946 57.3227 68.4134 57.3474 68.4422C57.3731 68.4707 57.3919 68.509 57.4037 68.557ZM61.2719 68.6983L61.1031 68.4558L60.2329 68.6953L60.1988 68.9999C60.1854 69.1187 60.1693 69.2011 60.1505 69.2471C60.1314 69.2921 60.0898 69.3234 60.0255 69.3411C59.971 69.3561 59.9179 69.3493 59.8662 69.3206C59.8144 69.2919 59.7823 69.2521 59.7697 69.2011C59.7625 69.1717 59.7599 69.14 59.7619 69.106C59.7639 69.0719 59.7692 69.0239 59.7778 68.9618L59.9808 67.4114C59.9864 67.3669 59.9931 67.3138 60.0008 67.252C60.0092 67.189 60.0209 67.1355 60.0361 67.0915C60.0522 67.0473 60.0775 67.0085 60.1119 66.9749C60.1469 66.9402 60.1942 66.9146 60.2535 66.8983C60.3139 66.8817 60.3669 66.8796 60.4126 66.8922C60.459 66.9035 60.4989 66.9239 60.5322 66.9535C60.5664 66.9828 60.597 67.0162 60.6239 67.0538C60.6515 67.0902 60.6871 67.1395 60.7305 67.2019L61.6321 68.439C61.7019 68.5328 61.7428 68.6037 61.7546 68.6518C61.7669 68.7018 61.7573 68.7536 61.7258 68.8073C61.6951 68.8597 61.6505 68.8939 61.5921 68.91C61.5581 68.9194 61.5273 68.921 61.4998 68.915C61.4726 68.9099 61.4482 68.8994 61.4266 68.8834C61.4047 68.8663 61.3787 68.8389 61.3486 68.8012C61.3193 68.7621 61.2937 68.7278 61.2719 68.6983ZM60.2661 68.3361L60.9056 68.1601L60.3639 67.3593L60.2661 68.3361ZM62.3489 68.0832L62.4314 68.4184C62.4514 68.4998 62.4475 68.5663 62.4197 68.6179C62.3916 68.6685 62.3484 68.7019 62.29 68.718C62.2326 68.7338 62.1803 68.7262 62.1332 68.6952C62.0861 68.6642 62.0526 68.6085 62.0328 68.5281L61.7577 67.4106C61.7133 67.2302 61.7559 67.1223 61.8853 67.0866C61.9515 67.0684 62.0044 67.0764 62.044 67.1105C62.0835 67.1446 62.1149 67.2024 62.1381 67.284C62.1655 67.1885 62.1989 67.1129 62.2382 67.057C62.2784 67.001 62.3404 66.9614 62.4241 66.9384C62.5078 66.9153 62.5942 66.914 62.6835 66.9345C62.7727 66.955 62.8258 67 62.843 67.0696C62.855 67.1186 62.848 67.164 62.8219 67.2057C62.7965 67.2462 62.7644 67.2718 62.7255 67.2825C62.7109 67.2865 62.6732 67.2874 62.6124 67.2853C62.5523 67.282 62.5009 67.2862 62.458 67.298C62.3996 67.314 62.3558 67.3429 62.3265 67.3844C62.297 67.425 62.2795 67.4785 62.2741 67.5449C62.2686 67.6113 62.2723 67.6877 62.2853 67.7741C62.298 67.8596 62.3192 67.9626 62.3489 68.0832ZM64.539 67.2591L64.6703 67.7929C64.6911 67.8772 64.6877 67.9456 64.6601 67.9982C64.6325 68.0508 64.5876 68.0857 64.5253 68.1028C64.4649 68.1194 64.4106 68.1119 64.3623 68.0802C64.3149 68.0482 64.2808 67.9901 64.2601 67.9058L64.1026 67.2662C64.0778 67.1652 64.0551 67.0877 64.0345 67.0337C64.0139 66.9797 63.9842 66.9392 63.9454 66.9122C63.9063 66.8843 63.8541 66.8792 63.7889 66.8972C63.6585 66.9331 63.5834 67.0019 63.5638 67.1036C63.5451 67.205 63.5565 67.34 63.598 67.5086L63.7316 68.0512C63.7521 68.1345 63.7487 68.203 63.7213 68.2566C63.6947 68.3089 63.6507 68.3435 63.5894 68.3604C63.5291 68.377 63.4742 68.3696 63.4249 68.3381C63.3764 68.3054 63.3418 68.2474 63.3213 68.1641L63.0386 67.0157C63.02 66.9403 63.023 66.8782 63.0474 66.8296C63.0728 66.7808 63.1137 66.7486 63.1701 66.7331C63.2246 66.7181 63.2745 66.7242 63.3197 66.7516C63.3656 66.7777 63.3965 66.8231 63.4124 66.8878L63.4218 66.926C63.4704 66.8236 63.5293 66.742 63.5985 66.6811C63.6677 66.6202 63.7505 66.5765 63.8468 66.55C63.9471 66.5224 64.0382 66.5188 64.1201 66.5392C64.202 66.5595 64.2764 66.604 64.3431 66.6725C64.39 66.5716 64.4471 66.491 64.5143 66.4307C64.5813 66.3693 64.6615 66.3258 64.755 66.3001C64.864 66.2701 64.9632 66.2658 65.0527 66.2872C65.1421 66.3087 65.2162 66.3542 65.2749 66.4239C65.3269 66.487 65.372 66.5966 65.4104 66.7524L65.6033 67.5361C65.624 67.6204 65.6206 67.6889 65.593 67.7415C65.5655 67.7941 65.5205 67.829 65.4582 67.8461C65.3979 67.8627 65.3431 67.8553 65.2937 67.8238C65.2452 67.7912 65.2106 67.7332 65.1901 67.6498L65.024 66.9749C65.0027 66.8887 64.9818 66.8206 64.9613 66.7708C64.9417 66.7207 64.9115 66.6825 64.8706 66.656C64.8298 66.6296 64.7768 66.6253 64.7116 66.6433C64.6591 66.6577 64.6128 66.6872 64.5728 66.7317C64.5338 66.7759 64.5077 66.8281 64.4944 66.8883C64.4819 66.964 64.4967 67.0876 64.539 67.2591ZM66.9883 66.6589L66.2087 66.8734C66.2321 66.9643 66.2699 67.0397 66.3221 67.0997C66.3752 67.1594 66.4353 67.1988 66.5024 67.2181C66.5705 67.237 66.64 67.2367 66.7111 67.2171C66.7588 67.204 66.8008 67.1867 66.8371 67.1652C66.8741 67.1425 66.9082 67.1142 66.9394 67.0805C66.9703 67.0459 66.998 67.0105 67.0224 66.9745C67.0468 66.9385 67.078 66.8901 67.1161 66.8294C67.1322 66.8061 67.1592 66.7893 67.1971 66.7788C67.238 66.7676 67.2739 66.7697 67.3048 66.7853C67.3356 66.8009 67.3561 66.8293 67.3662 66.8704C67.3752 66.9067 67.3715 66.9532 67.3554 67.01C67.339 67.0658 67.3076 67.1242 67.2613 67.1851C67.2157 67.2447 67.1532 67.3012 67.0738 67.3544C66.9954 67.4074 66.9002 67.4493 66.7883 67.4801C66.5323 67.5505 66.3152 67.5318 66.1369 67.4238C65.9586 67.3159 65.8384 67.136 65.7764 66.8841C65.7472 66.7654 65.7377 66.6508 65.7479 66.5402C65.7578 66.4286 65.7874 66.3273 65.8367 66.2363C65.886 66.1453 65.9551 66.0671 66.044 66.0019C66.1327 65.9356 66.2369 65.886 66.3566 65.853C66.5123 65.8102 66.6539 65.8068 66.7813 65.8429C66.9094 65.8778 67.0141 65.9401 67.0954 66.0297C67.1767 66.1193 67.2307 66.2185 67.2575 66.3273C67.2823 66.4283 67.2698 66.5019 67.2198 66.5481C67.1697 66.5933 67.0925 66.6302 66.9883 66.6589ZM66.1526 66.6455L66.8753 66.4466C66.8318 66.3121 66.7696 66.2198 66.6887 66.1698C66.6085 66.1186 66.5164 66.1074 66.4122 66.136C66.313 66.1633 66.2398 66.2206 66.1927 66.3079C66.1463 66.394 66.1329 66.5065 66.1526 66.6455ZM67.8457 65.6835L67.8577 65.732C67.9048 65.6196 67.9644 65.5304 68.0366 65.4645C68.1094 65.3974 68.1999 65.3489 68.3079 65.3192C68.413 65.2903 68.5126 65.2875 68.6067 65.3108C68.7008 65.3341 68.7786 65.3822 68.8403 65.4553C68.8786 65.4971 68.9087 65.5453 68.9304 65.6C68.9522 65.6548 68.974 65.7262 68.9957 65.8144L69.1796 66.5614C69.1993 66.6418 69.1958 66.7076 69.169 66.759C69.1431 66.8101 69.1009 66.8437 69.0425 66.8597C68.9832 66.8761 68.9298 66.8682 68.8824 66.8363C68.8351 66.8043 68.8017 66.7491 68.7824 66.6707L68.6178 66.0017C68.5852 65.8693 68.5418 65.7734 68.4877 65.714C68.4343 65.6534 68.3531 65.638 68.2441 65.668C68.1731 65.6876 68.1136 65.727 68.0659 65.7862C68.0178 65.8444 67.9894 65.9145 67.9804 65.9965C67.9757 66.0616 67.9935 66.1761 68.0338 66.3398L68.1576 66.8426C68.1776 66.924 68.1737 66.9905 68.1459 67.0421C68.1188 67.0925 68.0755 67.1258 68.0162 67.1422C67.9587 67.158 67.9063 67.1499 67.859 67.1179C67.8116 67.0859 67.7783 67.0308 67.759 66.9523L67.4734 65.7922C67.4546 65.7157 67.4571 65.6543 67.4811 65.608C67.5047 65.5606 67.5453 65.5291 67.6027 65.5133C67.6378 65.5036 67.6714 65.5032 67.7038 65.5121C67.7361 65.521 67.7646 65.5399 67.7894 65.5686C67.8151 65.5972 67.8339 65.6354 67.8457 65.6835ZM69.6911 65.1819L69.9767 66.342C69.9965 66.4224 69.9925 66.4884 69.9647 66.54C69.9368 66.5916 69.8937 66.6255 69.8353 66.6416C69.7769 66.6576 69.724 66.6497 69.6767 66.6177C69.6303 66.5855 69.5974 66.5301 69.5781 66.4517L69.2955 65.3033C69.2759 65.2239 69.2792 65.1592 69.3053 65.1091C69.3324 65.0587 69.3752 65.0255 69.4336 65.0094C69.492 64.9934 69.5451 65.0002 69.5929 65.0299C69.6408 65.0597 69.6735 65.1103 69.6911 65.1819ZM69.392 64.8215C69.3365 64.8367 69.2846 64.8327 69.2362 64.8094C69.1888 64.7858 69.1574 64.7426 69.142 64.6799C69.128 64.623 69.1365 64.571 69.1675 64.5237C69.1992 64.4752 69.2418 64.4436 69.2953 64.4289C69.3469 64.4147 69.3968 64.4188 69.4449 64.4411C69.493 64.4635 69.5249 64.5065 69.5406 64.5702C69.5558 64.632 69.5483 64.6858 69.518 64.7318C69.4875 64.7769 69.4455 64.8067 69.392 64.8215ZM71.4017 65.9687C71.3239 66.0707 71.2444 66.1533 71.1633 66.2164C71.0829 66.2783 70.9868 66.3247 70.8749 66.3555C70.7727 66.3836 70.6777 66.3883 70.5899 66.3695C70.5029 66.3495 70.4299 66.3105 70.3709 66.2524C70.3119 66.1943 70.2724 66.1246 70.2524 66.0432C70.2253 65.9334 70.2369 65.8303 70.2869 65.7339C70.3369 65.6374 70.4191 65.5593 70.5332 65.4997C70.5571 65.4868 70.6166 65.4563 70.7118 65.4081C70.807 65.36 70.8881 65.3178 70.955 65.2815C71.0227 65.2441 71.0954 65.2016 71.173 65.154C71.1421 65.0495 71.1016 64.9779 71.0516 64.9394C71.0023 64.8996 70.9188 64.8959 70.801 64.9283C70.6998 64.9561 70.6269 64.9914 70.5823 65.034C70.5387 65.0764 70.5054 65.131 70.4824 65.1981C70.4604 65.2648 70.4439 65.3097 70.4329 65.3326C70.4226 65.3543 70.3927 65.3719 70.343 65.3856C70.2983 65.3979 70.2558 65.3944 70.2157 65.3751C70.1764 65.3545 70.1511 65.3217 70.14 65.2766C70.1227 65.206 70.1306 65.1306 70.1638 65.0502C70.1971 64.9699 70.2609 64.8937 70.3554 64.8217C70.4499 64.7496 70.5755 64.692 70.7322 64.6489C70.9074 64.6007 71.0504 64.5839 71.161 64.5984C71.2714 64.612 71.3581 64.6583 71.4212 64.7372C71.4852 64.8159 71.5356 64.9297 71.5723 65.0787C71.5955 65.1728 71.6146 65.2528 71.6298 65.3188C71.646 65.3844 71.6635 65.4576 71.6823 65.5383C71.7009 65.6137 71.7325 65.6893 71.7771 65.7649C71.8224 65.8393 71.848 65.8883 71.8538 65.9118C71.8639 65.953 71.8537 65.9961 71.8232 66.0411C71.7935 66.0849 71.7543 66.1135 71.7056 66.1269C71.6647 66.1381 71.6196 66.1301 71.5703 66.1029C71.5207 66.0747 71.4645 66.0299 71.4017 65.9687ZM71.2324 65.3952C71.1793 65.4328 71.0998 65.4793 70.9939 65.5346C70.8887 65.5886 70.8162 65.6275 70.7763 65.651C70.7361 65.6736 70.7006 65.7069 70.6699 65.7509C70.6389 65.794 70.6307 65.8449 70.6452 65.9037C70.6601 65.9645 70.6958 66.0102 70.7522 66.0407C70.8083 66.0703 70.8733 66.0749 70.9473 66.0545C71.0261 66.0328 71.0944 65.9957 71.1522 65.9432C71.2107 65.8894 71.2487 65.8308 71.2663 65.7673C71.2874 65.6967 71.2808 65.5917 71.2465 65.4525L71.2324 65.3952Z" fill="#4F4024"/>
<path d="M5.31236 27.0875L5.34228 29.0223C5.34383 29.1249 5.39305 29.2201 5.47391 29.2769L6.9983 30.3476C7.20187 30.4907 7.16197 30.8183 6.93083 30.9021L5.19971 31.5301C5.10798 31.5634 5.03758 31.6423 5.01147 31.7412L4.51934 33.605C4.45365 33.8538 4.1466 33.915 3.99972 33.7085L2.8999 32.1617C2.84159 32.0797 2.74889 32.0333 2.65197 32.0376L0.823368 32.1187C0.579251 32.1295 0.429375 31.8397 0.569681 31.6282L1.62109 30.0443C1.67688 29.9603 1.68994 29.8527 1.65612 29.7566L1.01809 27.9428C0.932936 27.7007 1.14737 27.4604 1.38094 27.5362L3.13055 28.1041C3.22333 28.1342 3.32414 28.114 3.40022 28.0503L4.83451 26.8483C5.02599 26.6878 5.30838 26.8292 5.31236 27.0875Z" stroke="#4F4024" stroke-width="0.375034" stroke-miterlimit="10"/>
<path d="M13.9737 0.78615L14.2915 2.30892C14.3083 2.38969 14.3616 2.45649 14.4341 2.48762L15.8007 3.07416C15.9831 3.15245 16.0014 3.41794 15.8317 3.5235L14.5601 4.31352C14.4927 4.35545 14.4491 4.42971 14.4435 4.5122L14.3382 6.06764C14.3241 6.27533 14.091 6.37575 13.9436 6.23769L12.84 5.20319C12.7815 5.14831 12.7012 5.12738 12.6253 5.14728L11.1936 5.5221C11.0025 5.57209 10.8401 5.36869 10.9187 5.1778L11.5083 3.74833C11.5395 3.67262 11.5335 3.58541 11.4921 3.51518L10.7127 2.19135C10.6086 2.01462 10.7414 1.78841 10.9373 1.80856L12.4053 1.95965C12.4831 1.96763 12.5597 1.9347 12.61 1.87142L13.56 0.678446C13.6868 0.519206 13.9313 0.582834 13.9737 0.78615Z" stroke="#4F4024" stroke-width="0.375034" stroke-miterlimit="10"/>
<path d="M56.8818 2.92623L57.5658 4.30785C57.6021 4.38108 57.6701 4.43073 57.7477 4.44068L59.2119 4.62822C59.4074 4.65326 59.4909 4.90442 59.3531 5.0532L58.3218 6.16796C58.2671 6.22705 58.2434 6.31082 58.2585 6.39194L58.5423 7.92226C58.5802 8.12652 58.3801 8.28816 58.2036 8.19563L56.8822 7.50302C56.8121 7.46623 56.7295 7.46838 56.6612 7.50851L55.3724 8.2668C55.2003 8.36808 54.9932 8.21673 55.0218 8.01075L55.2365 6.46792C55.2479 6.38611 55.2205 6.30362 55.1632 6.24737L54.0829 5.18568C53.9387 5.04402 54.0107 4.78891 54.2049 4.7541L55.659 4.49324C55.7361 4.47935 55.8018 4.42636 55.8347 4.35133L56.4559 2.93695C56.5387 2.74813 56.7905 2.74178 56.8818 2.92623Z" stroke="#4F4024" stroke-width="0.375034" stroke-miterlimit="10"/>
<path d="M73.1003 32.1196L74.194 33.1658C74.252 33.2213 74.3322 33.243 74.4082 33.2239L75.8433 32.8643C76.035 32.8163 76.1955 33.0215 76.1149 33.2114L75.512 34.6346C75.48 34.71 75.4852 34.7973 75.5258 34.8679L76.2928 36.1999C76.3952 36.3778 76.2603 36.6025 76.0644 36.5803L74.598 36.4137C74.5202 36.4049 74.4434 36.437 74.3924 36.4998L73.4313 37.6825C73.303 37.8405 73.0591 37.7743 73.0186 37.5706L72.7153 36.0444C72.6992 35.9635 72.6465 35.8962 72.5744 35.8643L71.2134 35.2633C71.0317 35.1831 71.0159 34.9173 71.1866 34.8137L72.4656 34.0371C72.5334 33.9959 72.5778 33.9221 72.5841 33.8397L72.7041 32.2855C72.7202 32.0779 72.9542 31.9799 73.1003 32.1196Z" stroke="#4F4024" stroke-width="0.375034" stroke-miterlimit="10"/>
<path d="M25.5142 39.2739C23.489 39.2956 21.4564 38.0629 21.4564 38.0629L21.3528 37.9956C21.1138 37.723 20.8987 37.4341 20.7091 37.138C20.6579 37.0622 20.61 36.9846 20.564 36.9051C21.1411 36.4465 22.8384 35.3109 24.6706 36.1161C26.3339 36.8437 25.8745 38.4651 25.5142 39.2739Z" fill="#E8CEC1"/>
<path d="M25.5142 39.2739C23.489 39.2956 21.4564 38.0629 21.4564 38.0629L21.3528 37.9956C21.1138 37.723 20.8987 37.4341 20.7091 37.138C20.6579 37.0622 20.61 36.9846 20.564 36.9051C21.1411 36.4465 22.8384 35.3109 24.6706 36.1161C26.3339 36.8437 25.8745 38.4651 25.5142 39.2739Z" stroke="#4F4024" stroke-width="0.375034" stroke-miterlimit="10"/>
</g>
<defs>
<clipPath id="clip0_151_4304">
<rect width="81" height="81" fill="white"/>
</clipPath>
</defs>
</svg>
