<svg width="16" height="13" viewBox="0 0 16 13" fill="none" xmlns="http://www.w3.org/2000/svg">
<path d="M0.7996 5.69998H13.0708L8.2732 1.50318C8.1147 1.36322 8.01806 1.1662 8.0044 0.955184C7.99074 0.744172 8.06118 0.536336 8.20032 0.37711C8.33946 0.217884 8.53598 0.120219 8.74692 0.105467C8.95785 0.090714 9.16605 0.160073 9.326 0.298382L15.726 5.89838C15.7324 5.90398 15.7348 5.91278 15.7412 5.91838C15.798 5.97474 15.8457 6.0395 15.8828 6.11038C15.8972 6.13438 15.9188 6.15358 15.93 6.17998C15.9755 6.28081 15.999 6.39016 15.999 6.50078C15.999 6.6114 15.9755 6.72075 15.93 6.82158C15.9188 6.84798 15.8972 6.86718 15.8828 6.89198C15.8428 6.96158 15.7996 7.02798 15.7412 7.08318C15.7348 7.08878 15.7324 7.09758 15.726 7.10318L9.326 12.7032C9.24708 12.7727 9.15518 12.8259 9.05559 12.8597C8.95601 12.8936 8.85071 12.9074 8.74577 12.9003C8.64083 12.8932 8.53833 12.8655 8.44418 12.8186C8.35003 12.7717 8.26609 12.7067 8.1972 12.6272C8.05759 12.4674 7.98717 12.2587 8.00142 12.047C8.01567 11.8354 8.11344 11.638 8.2732 11.4984L13.0708 7.29998H0.7996C0.587427 7.29998 0.383943 7.2157 0.233914 7.06567C0.0838852 6.91564 -0.00039959 6.71215 -0.00039959 6.49998C-0.00039959 6.28781 0.0838852 6.08433 0.233914 5.9343C0.383943 5.78427 0.587427 5.69998 0.7996 5.69998Z" fill="#4F4024"/>
</svg>
