<svg width="10" height="12" viewBox="0 0 10 12" fill="none" xmlns="http://www.w3.org/2000/svg">
<path d="M4.39999 0.599944L4.39999 9.80334L1.25239 6.20514C1.14741 6.08627 0.999646 6.01379 0.841388 6.00354C0.683129 5.9933 0.527252 6.04613 0.407832 6.15049C0.288413 6.25484 0.215164 6.40223 0.2041 6.56043C0.193035 6.71863 0.245055 6.87478 0.348786 6.99474L4.54879 11.7947C4.55299 11.7995 4.55959 11.8013 4.56379 11.8061C4.60606 11.8487 4.65462 11.8845 4.70779 11.9123C4.72579 11.9231 4.74019 11.9393 4.75999 11.9477C4.83561 11.9819 4.91762 11.9995 5.00059 11.9995C5.08355 11.9995 5.16557 11.9819 5.24119 11.9477C5.26099 11.9393 5.27539 11.9231 5.29399 11.9123C5.34619 11.8823 5.39599 11.8499 5.43739 11.8061C5.44159 11.8013 5.44819 11.7995 5.45239 11.7947L9.65239 6.99474C9.70453 6.93555 9.74444 6.86663 9.76981 6.79194C9.79518 6.71725 9.80552 6.63827 9.80022 6.55957C9.79492 6.48087 9.77409 6.40399 9.73894 6.33338C9.70378 6.26276 9.65499 6.19981 9.59539 6.14814C9.47556 6.04344 9.31905 5.99062 9.16028 6.00131C9.00151 6.012 8.85349 6.08532 8.74879 6.20514L5.59999 9.80334L5.59999 0.599944C5.59999 0.440814 5.53677 0.288201 5.42425 0.175679C5.31173 0.0631569 5.15912 -5.64834e-05 4.99999 -5.64765e-05C4.84086 -5.64695e-05 4.68824 0.0631569 4.57572 0.175679C4.4632 0.288201 4.39999 0.440814 4.39999 0.599944Z" fill="#FCFCFC"/>
</svg>
