<svg width="18" height="21" viewBox="0 0 18 21" fill="none" xmlns="http://www.w3.org/2000/svg">
<path fill-rule="evenodd" clip-rule="evenodd" d="M0 1.5C0 0.947715 0.449317 0.5 1.00358 0.5H2.50894C3.34034 0.5 4.01431 1.17157 4.01431 2V2.56055L16.5883 3.46818C17.4651 3.52278 18.1089 4.31081 17.9846 5.17739L17.1194 11.2121C17.0135 11.9511 16.3783 12.5 15.6292 12.5H4.01431V14.5H14.0572C15.72 14.5 17.068 15.8431 17.068 17.5C17.068 19.1569 15.72 20.5 14.0572 20.5C12.3945 20.5 11.0465 19.1569 11.0465 17.5C11.0465 17.1494 11.1069 16.8128 11.2178 16.5H5.85015C5.9611 16.8128 6.02147 17.1494 6.02147 17.5C6.02147 19.1569 4.67352 20.5 3.01073 20.5C1.34795 20.5 0 19.1569 0 17.5C0 16.1938 0.837794 15.0825 2.00716 14.6707V3.50923C2.00711 3.50372 2.00711 3.49821 2.00716 3.49268V2.5H1.00358C0.449317 2.5 0 2.05228 0 1.5ZM4.01431 4.56445V10.5H15.194L15.9208 5.43051L4.01431 4.56445ZM13.0537 17.5C13.0537 16.9477 13.503 16.5 14.0572 16.5C14.6115 16.5 15.0608 16.9477 15.0608 17.5C15.0608 18.0523 14.6115 18.5 14.0572 18.5C13.503 18.5 13.0537 18.0523 13.0537 17.5ZM2.00716 17.5C2.00716 16.9477 2.45647 16.5 3.01073 16.5C3.56499 16.5 4.01431 16.9477 4.01431 17.5C4.01431 18.0523 3.56499 18.5 3.01073 18.5C2.45647 18.5 2.00716 18.0523 2.00716 17.5Z" fill="#4F4024"/>
</svg>
