<svg width="24" height="24" viewBox="0 0 24 24" fill="none" xmlns="http://www.w3.org/2000/svg">
<path d="M9.26027 6.34667H14.7397C16.3836 6.34667 17.589 7.62667 17.589 9.12V14.7733C17.589 16.3733 16.274 17.5467 14.7397 17.5467H9.26027C7.61644 17.5467 6.41096 16.2667 6.41096 14.7733V9.12C6.41096 7.62667 7.61644 6.34667 9.26027 6.34667ZM14.7397 4H9.26027C6.30137 4 4 6.34667 4 9.12V14.88C4 16.2667 4.54795 17.5467 5.53425 18.5067C6.52055 19.4667 7.83562 20 9.26027 20H14.7397C17.6986 20 20 17.6533 20 14.88V9.12C20 6.34667 17.6986 4 14.7397 4Z" fill="#252525"/>
<path d="M12.0001 10.5067C12.9864 10.5067 13.5343 11.04 13.5343 12C13.5343 12.7467 12.8768 13.4934 12.0001 13.4934C11.233 13.4934 10.4658 12.8534 10.4658 12C10.4658 11.5734 10.685 11.2534 10.9042 10.9334C11.233 10.72 11.5617 10.5067 12.0001 10.5067ZM12.0001 8.69336C11.8905 8.69336 11.8905 8.69336 12.0001 8.69336C11.0138 8.69336 10.2466 9.01336 9.6987 9.65336C9.04117 10.2934 8.7124 11.1467 8.7124 12C8.7124 12.8534 9.04117 13.7067 9.6987 14.3467C10.3562 14.9867 11.233 15.3067 12.1097 15.3067C13.9727 15.3067 15.5069 13.8134 15.5069 12C15.5069 11.1467 15.1782 10.2934 14.6302 9.65336C14.1919 9.22669 13.5343 8.69336 12.3288 8.69336C12.1097 8.69336 12.0001 8.69336 12.0001 8.69336Z" fill="#252525"/>
<path d="M15.5067 9.54662C16.1725 9.54662 16.7122 9.0213 16.7122 8.37328C16.7122 7.72527 16.1725 7.19995 15.5067 7.19995C14.841 7.19995 14.3013 7.72527 14.3013 8.37328C14.3013 9.0213 14.841 9.54662 15.5067 9.54662Z" fill="#252525"/>
</svg>
