<svg width="17" height="17" viewBox="0 0 17 17" fill="none" xmlns="http://www.w3.org/2000/svg">
<path d="M6.87613 3.97601L6.34213 1.30601C6.20213 0.605006 5.58613 0.100006 4.87113 0.100006H1.63813C0.778131 0.100006 0.062131 0.827006 0.101131 1.68601C0.562131 11.847 5.60013 15.711 14.5161 16.099C15.3751 16.136 16.1001 15.423 16.1001 14.564V11.329C16.1001 10.614 15.5951 9.99801 14.8941 9.85801L12.2241 9.32401C11.5611 9.19101 10.8911 9.51901 10.5881 10.124L10.1001 11.099C8.10013 11.099 5.10013 8.09901 5.10013 6.09901L6.07513 5.61101C6.68113 5.30901 7.00913 4.63901 6.87613 3.97601Z" fill="#252525"/>
</svg>
