<svg width="14" height="14" viewBox="0 0 14 14" fill="none" xmlns="http://www.w3.org/2000/svg">
<path d="M8.13167 6.99998L13.1661 1.96558C13.3161 1.81557 13.4003 1.61212 13.4003 1.39998C13.4003 1.18784 13.3161 0.984383 13.1661 0.834377C13.0161 0.68437 12.8126 0.600098 12.6005 0.600098C12.3883 0.600098 12.1849 0.68437 12.0349 0.834377L7.00047 5.86878L1.96607 0.834377C1.89179 0.760101 1.80361 0.701183 1.70657 0.660985C1.60952 0.620787 1.50551 0.600098 1.40047 0.600098C1.29542 0.600098 1.19141 0.620787 1.09436 0.660985C0.997319 0.701183 0.909141 0.760101 0.834865 0.834377C0.684859 0.984383 0.600586 1.18784 0.600586 1.39998C0.600586 1.61212 0.684859 1.81557 0.834865 1.96558L5.86927 6.99998L0.834865 12.0344C0.684859 12.1844 0.600586 12.3878 0.600586 12.6C0.600586 12.8121 0.684859 13.0156 0.834865 13.1656C0.984872 13.3156 1.18832 13.3999 1.40047 13.3999C1.61261 13.3999 1.81606 13.3156 1.96607 13.1656L7.00047 8.13118L12.0349 13.1656C12.109 13.2401 12.1971 13.2993 12.2942 13.3397C12.3912 13.38 12.4953 13.4008 12.6005 13.4008C12.7056 13.4008 12.8097 13.38 12.9067 13.3397C13.0038 13.2993 13.0919 13.2401 13.1661 13.1656C13.2404 13.0913 13.2994 13.0032 13.3397 12.9061C13.3799 12.8091 13.4006 12.705 13.4006 12.6C13.4006 12.4949 13.3799 12.3909 13.3397 12.2938C13.2994 12.1968 13.2404 12.1086 13.1661 12.0344L8.13167 6.99998Z" fill="#505050"/>
</svg>
